<svg width="12" height="21" viewBox="0 0 12 21" fill="none" xmlns="http://www.w3.org/2000/svg">
<path d="M3.45564 1.63792C3.25568 0.833993 2.44185 0.344386 1.63792 0.544356C0.833993 0.744325 0.344386 1.55815 0.544356 2.36208L3.45564 1.63792ZM10 10.2703L10.6263 11.6333C11.1962 11.3714 11.5431 10.7825 11.4957 10.1571C11.4484 9.53163 11.0169 9.00166 10.414 8.82854L10 10.2703ZM0.5 19C0.5 19.8284 1.17157 20.5 2 20.5C2.82843 20.5 3.5 19.8284 3.5 19H0.5ZM0.544356 2.36208C1.15147 4.80285 3.76228 10.0397 9.58599 11.712L10.414 8.82854C5.99772 7.56034 3.91519 3.48544 3.45564 1.63792L0.544356 2.36208ZM9.37375 8.90725C7.93104 9.57012 5.79231 10.8215 3.98782 12.4714C2.23137 14.0773 0.5 16.3301 0.5 19H3.5C3.5 17.6267 4.4353 16.1272 6.01218 14.6854C7.54102 13.2875 9.40229 12.1956 10.6263 11.6333L9.37375 8.90725Z" fill="#FFB740"/>
</svg>
