<svg width="32" height="33" viewBox="0 0 32 33" fill="none" xmlns="http://www.w3.org/2000/svg">
<circle r="16" transform="matrix(1 1.74846e-07 1.74846e-07 -1 16 16.4805)" fill="#002F87"/>
<path fill-rule="evenodd" clip-rule="evenodd" d="M23.2818 19.3345C23.428 18.7666 23.0699 18.1916 22.4819 18.0503C21.1306 17.7257 18.1501 16.2545 17.2226 13.1345C17.0959 12.7086 16.7083 12.4037 16.2509 12.3703C15.7934 12.3368 15.3627 12.5819 15.1711 12.9845C14.7598 13.8492 13.9612 15.1642 12.9388 16.2442C11.8842 17.3583 10.7875 18.019 9.78301 18.019C9.17708 18.019 8.68588 18.4935 8.68588 19.0787C8.68588 19.664 9.17708 20.1384 9.783 20.1384C11.7358 20.1384 13.3835 18.9153 14.5582 17.6744C15.1233 17.0773 15.6245 16.4285 16.0476 15.8027C17.7031 18.4765 20.5022 19.7587 21.9522 20.1071C22.5402 20.2484 23.1355 19.9025 23.2818 19.3345Z" fill="white"/>
</svg>
