<svg width="16" height="15" viewBox="0 0 16 15" fill="none" xmlns="http://www.w3.org/2000/svg">
<path d="M5.39574 9.45503C7.81684 5.04189 11.3012 1.85226 15.9995 0.034668C11.2281 3.94096 7.84277 8.83974 5.54662 14.5283C5.53483 14.507 5.5089 14.4693 5.48768 14.4292C4.47869 12.6753 3.33769 11.0133 1.98216 9.50454C1.5201 8.98826 1.02975 8.50262 0.49225 8.06414C0.459246 8.03585 0.426241 8.00756 0.395595 7.97927C0.00897317 7.63272 -0.123044 7.31918 0.129203 6.73218C0.419169 6.05795 0.95431 5.63832 1.65211 5.43087C1.84778 5.37193 2.03638 5.41908 2.20376 5.52752C2.33106 5.61003 2.456 5.70433 2.56445 5.81042C3.64887 6.85005 4.56356 8.02406 5.31559 9.32301C5.34152 9.36545 5.3651 9.40552 5.39574 9.45503Z" fill="#FFB740"/>
<clipPath id="clip0_137_57525">
<rect width="16" height="14.4936" fill="white" transform="translate(0 0.034668)"/>
</clipPath>
</svg>
