<svg width="17" height="16" viewBox="0 0 17 16" fill="none" xmlns="http://www.w3.org/2000/svg">
<g clip-path="url(#clip0_325_10846)">
<path d="M5.64574 10.2753C8.06684 5.8622 11.5512 2.67257 16.2495 0.85498C11.4781 4.76127 8.09277 9.66005 5.79662 15.3486C5.78483 15.3274 5.7589 15.2896 5.73768 15.2496C4.72869 13.4956 3.58769 11.8336 2.23216 10.3249C1.7701 9.80857 1.27975 9.32293 0.74225 8.88445C0.709246 8.85616 0.676241 8.82787 0.645595 8.79958C0.258973 8.45304 0.126956 8.1395 0.379203 7.55249C0.669169 6.87826 1.20431 6.45863 1.90211 6.25118C2.09778 6.19224 2.28638 6.23939 2.45376 6.34783C2.58106 6.43035 2.706 6.52464 2.81445 6.63073C3.89887 7.67036 4.81356 8.84437 5.56559 10.1433C5.59152 10.1858 5.6151 10.2258 5.64574 10.2753Z" fill="#FFB740"/>
</g>
<defs>
<clipPath id="clip0_325_10846">
<rect width="16" height="14.4936" fill="white" transform="translate(0.25 0.85498)"/>
</clipPath>
</defs>
</svg>
