<svg width="25" height="25" viewBox="0 0 25 25" fill="none" xmlns="http://www.w3.org/2000/svg">
<g clip-path="url(#clip0_325_5382)">
<path d="M0.0703125 2.68481C0.0703125 1.58024 0.965743 0.684814 2.07031 0.684814H22.0703C23.1749 0.684814 24.0703 1.58025 24.0703 2.68481V22.6848C24.0703 23.7894 23.1749 24.6848 22.0703 24.6848H2.07031C0.965743 24.6848 0.0703125 23.7894 0.0703125 22.6848V2.68481Z" fill="#002F87"/>
<path d="M4.07031 3.68481H20.0703C20.3355 3.68481 20.5899 3.79017 20.7774 3.97771C20.965 4.16524 21.0703 4.4196 21.0703 4.68481V20.6848C21.0703 20.95 20.965 21.2044 20.7774 21.3919C20.5899 21.5795 20.3355 21.6848 20.0703 21.6848H4.07031C3.8051 21.6848 3.55074 21.5795 3.36321 21.3919C3.17567 21.2044 3.07031 20.95 3.07031 20.6848V4.68481C3.07031 4.4196 3.17567 4.16524 3.36321 3.97771C3.55074 3.79017 3.8051 3.68481 4.07031 3.68481Z" fill="#002F87"/>
<path d="M18.145 9.61371L11.075 16.6847L6.83203 12.4417L8.24603 11.0277L11.075 13.8567L16.731 8.19971L18.145 9.61371Z" fill="white"/>
</g>
<defs>
<clipPath id="clip0_325_5382">
<rect width="24" height="24" fill="white" transform="translate(0.0703125 0.684814)"/>
</clipPath>
</defs>
</svg>
